<?xml version="1.0" encoding="UTF-8"?>
<svg id="Capa_1" xmlns="http://www.w3.org/2000/svg" version="1.1" viewBox="0 0 24 24">
  <!-- Generator: Adobe Illustrator 29.5.1, SVG Export Plug-In . SVG Version: 2.1.0 Build 141)  -->
  <path d="M13.02.4c-.58-.53-1.47-.53-2.04,0L.48,10.15c-.45.42-.6,1.07-.38,1.65.23.57.77.95,1.39.95h.75v8.25c0,1.65,1.35,3,3,3h13.5c1.65,0,3-1.35,3-3v-8.25h.75c.62,0,1.17-.38,1.4-.95.23-.57.08-1.23-.38-1.65L13.02.4ZM11.25,15h1.5c1.24,0,2.25,1.01,2.25,2.25v4.5h-6v-4.5c0-1.24,1.01-2.25,2.25-2.25Z"/>
</svg>